PathFileType	4	(X/Y/Z)	c:/Users/goper/Files/vsCode/490R/osim_files/C10/C10_Static.trc
DataRate	CameraRate	NumFrames	NumMarkers	Units                	OrigDataRate	OrigDataStartFrame	OrigNumFrames
250.00	250.00	4	36	mm	250.0	1	1971
                Frame#	Time	LPSIS			LASIS			LTH1			LTH2			LTH3			LTH4			LLFE			LMFE			LSH1			LSH2			LSH3			LSH4			LLMAL			LMMAL			LCAL			LMTP5			LTOE			LMTP1			RPSIS			RASIS			RTH1			RTH2			RTH3			RTH4			RLFE			RMFE			RSH1			RSH2			RSH3			RSH4			RLMAL			RMMAL			RCAL			RMTP1			RTOE			RMTP5		
		X1	Y1	Z1	X2	Y2	Z2	X3	Y3	Z3	X4	Y4	Z4	X5	Y5	Z5	X6	Y6	Z6	X7	Y7	Z7	X8	Y8	Z8	X9	Y9	Z9	X10	Y10	Z10	X11	Y11	Z11	X12	Y12	Z12	X13	Y13	Z13	X14	Y14	Z14	X15	Y15	Z15	X16	Y16	Z16	X17	Y17	Z17	X18	Y18	Z18	X19	Y19	Z19	X20	Y20	Z20	X21	Y21	Z21	X22	Y22	Z22	X23	Y23	Z23	X24	Y24	Z24	X25	Y25	Z25	X26	Y26	Z26	X27	Y27	Z27	X28	Y28	Z28	X29	Y29	Z29	X30	Y30	Z30	X31	Y31	Z31	X32	Y32	Z32	X33	Y33	Z33	X34	Y34	Z34	X35	Y35	Z35	X36	Y36	Z36

1	0.00000	-328.59158	1028.44531	445.22458	-186.63275	1000.36041	293.01892	-273.79758	795.49231	256.83301	-268.68469	749.49377	246.94817	-213.12939	796.08539	255.19801	-217.04045	749.22339	251.17552	-245.36699	492.88062	273.28775	-231.23029	466.51611	387.84647	-310.62164	417.00421	260.14725	-309.87161	370.54221	249.19905	-247.30028	411.87286	261.57822	-255.98611	367.76541	252.35440	-284.63882	92.77449	239.58223	-272.83340	89.86488	319.66000	-347.65887	38.44118	279.05759	-177.14601	28.28279	206.43005	-121.87740	47.10656	266.41782	-156.20370	26.31680	315.77567	-316.54282	1028.98608	524.79364	-148.13669	999.45477	634.05902	-246.74704	757.33344	691.53101	-239.34476	713.39178	695.04034	-185.64415	761.30389	693.45349	-185.32399	717.30438	697.66113	-220.46577	486.36197	668.42230	-208.88182	464.02472	557.77008	-297.66077	404.59595	691.50604	-293.83426	361.57123	700.45831	-234.82587	400.56885	689.64893	-241.54480	360.27859	698.54022	-274.40576	91.18127	699.63306	-255.33638	89.56020	619.91345	-329.49063	40.57636	664.45410	-134.92044	33.57010	637.11560	-104.52153	46.01578	678.74609	-156.31221	30.71815	740.56171
2	0.00400	-328.59985	1028.44592	445.20139	-186.65349	1000.35303	292.99948	-273.80060	795.47418	256.80011	-268.70828	749.47430	246.93922	-213.12894	796.09320	255.17024	-217.05051	749.21741	251.15341	-245.35912	492.87119	273.26239	-231.26175	466.50330	387.83295	-310.63773	416.99298	260.12662	-309.92401	370.53732	249.18617	-247.31613	411.86472	261.55807	-256.00125	367.74921	252.34140	-284.63831	92.77347	239.57907	-272.80823	89.85289	319.65671	-347.63901	38.43621	279.03790	-177.16013	28.28018	206.40451	-121.88792	47.09304	266.41959	-156.11136	26.38034	315.81644	-316.58319	1028.98523	524.75421	-148.16449	999.43726	634.03882	-246.71933	757.32123	691.52869	-239.33421	713.38037	695.02692	-185.60614	761.30920	693.44794	-185.33195	717.30658	697.63947	-220.45511	486.37057	668.40387	-208.90898	464.00638	557.74695	-297.67010	404.60886	691.48895	-293.86786	361.58002	700.43756	-234.84514	400.56766	689.62799	-241.56993	360.25082	698.52753	-274.40616	91.18262	699.62628	-255.34001	89.56065	619.90314	-329.47879	40.56944	664.45300	-134.95569	33.52216	637.12555	-104.53676	46.00795	678.73535	-156.30060	30.70638	740.55670
3	0.00800	-328.61740	1028.45215	445.16245	-186.67184	1000.33502	292.98431	-273.79626	795.47748	256.76666	-268.70233	749.48145	246.90974	-213.14198	796.07007	255.17107	-217.06657	749.21637	251.15448	-245.37064	492.87924	273.23907	-231.26686	466.50433	387.83154	-310.64441	416.96619	260.04428	-309.91342	370.51328	249.12767	-247.32391	411.84219	261.53854	-255.98866	367.76807	252.34348	-284.64066	92.76258	239.57077	-272.85315	89.84752	319.63943	-347.66360	38.42683	279.01700	-177.16251	28.26014	206.40392	-121.90913	47.08286	266.41904	-156.15019	26.32675	315.82767	-316.62302	1029.00659	524.71387	-148.20377	999.41547	634.04364	-246.78200	757.35718	691.47943	-239.35818	713.39392	694.99963	-185.64389	761.30176	693.40234	-185.35378	717.28784	697.61401	-220.49649	486.36069	668.38403	-208.92987	463.98303	557.72565	-297.69394	404.60318	691.46918	-293.85104	361.54001	700.45038	-234.87758	400.55746	689.60040	-241.60779	360.23648	698.51239	-274.43198	91.16140	699.60529	-255.32466	89.56374	619.88483	-329.49939	40.56481	664.44238	-134.92815	33.53496	637.08038	-104.55474	45.98964	678.73706	-156.32475	30.70314	740.54620
4	0.01200	-328.61142	1028.43896	445.12836	-186.67763	1000.35150	292.96973	-273.82117	795.48364	256.73813	-268.69684	749.48090	246.88284	-213.16653	796.06909	255.14922	-217.05710	749.21265	251.12663	-245.37816	492.87238	273.22235	-231.29456	466.51306	387.81064	-310.65115	417.01984	260.01620	-309.90390	370.51434	249.09975	-247.33344	411.86548	261.52325	-256.02298	367.76752	252.32791	-284.64868	92.76499	239.55093	-272.76761	89.93230	319.58780	-347.69690	38.45881	278.99512	-177.15881	28.27156	206.39478	-121.92395	47.08424	266.41043	-156.12776	26.37979	315.86032	-316.63272	1028.99976	524.67981	-148.19911	999.43652	634.01007	-246.79308	757.37177	691.45465	-239.41225	713.41528	694.95624	-185.67412	761.29614	693.39777	-185.36194	717.29340	697.58032	-220.52405	486.35580	668.35565	-208.94485	464.00418	557.71716	-297.68768	404.62830	691.44751	-293.91199	361.55670	700.42230	-234.89436	400.57764	689.59119	-241.62486	360.25510	698.48889	-274.44559	91.18563	699.59229	-255.35300	89.56114	619.87634	-329.53241	40.59689	664.40466	-134.69145	33.67340	637.12457	-104.55918	46.00617	678.72235	-156.34373	30.70599	740.52917
